<svg width="16" height="16" viewBox="0 0 16 16" fill="none" xmlns="http://www.w3.org/2000/svg">
<path d="M4.00001 14.6667C3.63334 14.6667 3.31934 14.536 3.05801 14.2747C2.79667 14.0133 2.66623 13.6996 2.66667 13.3333V6.66667C2.66667 6.3 2.79734 5.986 3.05867 5.72467C3.32001 5.46333 3.63378 5.33289 4.00001 5.33333H4.66667V4C4.66667 3.07778 4.99178 2.29156 5.64201 1.64133C6.29223 0.991113 7.07823 0.666224 8.00001 0.666668C8.92223 0.666668 9.70845 0.99178 10.3587 1.642C11.0089 2.29222 11.3338 3.07822 11.3333 4V5.33333H12C12.3667 5.33333 12.6807 5.464 12.942 5.72533C13.2033 5.98667 13.3338 6.30045 13.3333 6.66667V13.3333C13.3333 13.7 13.2027 14.014 12.9413 14.2753C12.68 14.5367 12.3662 14.6671 12 14.6667H4.00001ZM8.00001 11.3333C8.36667 11.3333 8.68067 11.2027 8.94201 10.9413C9.20334 10.68 9.33378 10.3662 9.33334 10C9.33334 9.63334 9.20267 9.31933 8.94134 9.058C8.68001 8.79667 8.36623 8.66622 8.00001 8.66667C7.63334 8.66667 7.31934 8.79733 7.05801 9.05867C6.79667 9.32 6.66623 9.63378 6.66667 10C6.66667 10.3667 6.79734 10.6807 7.05867 10.942C7.32001 11.2033 7.63378 11.3338 8.00001 11.3333ZM6.00001 5.33333H10V4C10 3.44445 9.80556 2.97222 9.41667 2.58333C9.02778 2.19445 8.55556 2 8.00001 2C7.44445 2 6.97223 2.19445 6.58334 2.58333C6.19445 2.97222 6.00001 3.44445 6.00001 4V5.33333Z" fill="#FFFFFF"/>
</svg>
