<svg width="22" height="22" viewBox="2 2 18 18" fill="none" xmlns="http://www.w3.org/2000/svg">
<path d="M11 3.66667C11.9725 3.66667 12.9051 4.05298 13.5927 4.74061C14.2804 5.42824 14.6667 6.36087 14.6667 7.33333C14.6667 8.30579 14.2804 9.23843 13.5927 9.92606C12.9051 10.6137 11.9725 11 11 11C10.0275 11 9.09491 10.6137 8.40728 9.92606C7.71965 9.23843 7.33334 8.30579 7.33334 7.33333C7.33334 6.36087 7.71965 5.42824 8.40728 4.74061C9.09491 4.05298 10.0275 3.66667 11 3.66667ZM11 18.3333C11 18.3333 18.3333 18.3333 18.3333 16.5C18.3333 14.3 14.7583 11.9167 11 11.9167C7.24167 11.9167 3.66667 14.3 3.66667 16.5C3.66667 18.3333 11 18.3333 11 18.3333Z" fill="#FFFFFF"/>
</svg>
