<svg width="368" height="351" viewBox="0 0 368 351" fill="none" xmlns="http://www.w3.org/2000/svg">
<path fill-rule="evenodd" clip-rule="evenodd" d="M21.1791 173.621C21.1791 173.621 8.44197 162.657 26.3113 124.804C44.1805 86.9496 80.3691 95.2466 103.501 80.3572C137.679 58.3577 123.67 41.1413 166.287 38.3662C219.945 34.8721 222.984 91.3366 249.83 91.3366C251.596 91.3366 293.4 74.4113 299.519 120.745C302.6 144.08 249.83 179.663 249.83 179.663C249.83 179.663 227.867 199.722 226.661 209.627C221.603 251.168 232.151 298.746 113.943 320.649C98.6546 323.482 73.2691 313.235 59.2641 294.307C48.292 279.478 4.27899 289.999 0.170499 241.247C-1.90027 216.675 21.1791 173.621 21.1791 173.621Z" fill="#5F4FD1" fill-opacity="0.37"/>
<path fill-rule="evenodd" clip-rule="evenodd" d="M88.8079 135.762C88.8079 135.762 76.0396 124.77 93.9526 86.818C111.866 48.8658 148.143 57.1843 171.331 42.2563C205.593 20.1995 191.55 2.93845 234.271 0.156127C288.061 -3.34703 291.107 53.2642 318.019 53.2642C319.789 53.2642 361.696 36.2949 367.83 82.7493C370.919 106.144 318.019 141.82 318.019 141.82C318.019 141.82 296.003 161.931 294.794 171.862C289.723 213.51 300.297 261.212 181.799 283.172C166.473 286.012 141.026 275.739 126.986 256.762C115.987 241.895 71.8664 252.443 67.7478 203.564C65.672 178.928 88.8079 135.762 88.8079 135.762Z" fill="#5F4FD1" fill-opacity="0.7"/>
<path d="M223.072 318.582L226.709 312.82L232.052 315.942L228.415 321.704L223.072 318.582Z" fill="#DE8E68"/>
<path d="M187.363 236.788C187.363 236.788 177.113 288.628 177.217 289.651C177.32 290.674 223.541 320.326 224.335 320.252C225.129 320.177 227.803 313.719 227.695 312.65C227.587 311.58 216.577 304.446 216.577 304.446L187.363 236.788Z" fill="#55C9D7"/>
<path d="M231.883 315.559L228.015 321.683L225.842 333.884L227.379 334.783L237.46 318.818L231.883 315.559Z" fill="black"/>
<path d="M189.597 210.759C188.047 209.259 172.245 191.181 169.032 190.267C165.818 189.353 165.523 191.252 165.354 191.802C165.185 192.352 164.462 196.107 172.754 200.904C173.259 202.061 182.453 218.582 185.903 221.221C187.185 217.208 189.597 210.759 189.597 210.759Z" fill="#DE8E68"/>
<path d="M172.216 196.752L163.589 187.013L170.378 185.566L178.862 194.842L172.216 196.752Z" fill="#333333"/>
<path d="M204.874 157.189L196.486 158.163L198.075 170.839C198.278 172.463 206.654 171.393 206.462 169.865L204.874 157.189Z" fill="#D27B58"/>
<path d="M189.553 152.525C189.077 145.268 192.248 139.168 196.636 138.9C201.024 138.633 204.968 144.3 205.444 151.557C205.921 158.814 202.75 164.913 198.361 165.181C193.973 165.448 190.03 159.782 189.553 152.525Z" fill="#DE8E68"/>
<path d="M177.085 150.433C176.927 149.171 177.496 147.641 177.315 146.197C177.157 144.934 176.413 143.557 176.187 141.753C175.803 138.687 178.81 136.873 180.498 136.677C183.686 136.306 184.707 138.384 189.77 137.796C192.77 137.448 193.992 136.574 195.68 136.378C200.93 135.768 202.471 141.996 202.562 142.717C202.946 145.784 207.282 145.463 207.688 148.71C208.073 151.776 205.15 155.777 202.524 156.082C199.899 156.387 197.168 154.325 197.078 153.602C196.874 151.979 197.204 151.575 197.068 150.492C196.593 146.703 187.899 146.797 186.588 146.95C186.167 148.952 186.024 150.999 186.164 153.038C185.252 153.505 184.258 153.807 183.232 153.928C182.293 154.038 177.47 153.499 177.085 150.433Z" fill="#FC8369"/>
<path d="M205.372 154.288C206.459 154.162 207.447 154.908 207.578 155.954C207.709 157 206.934 157.95 205.847 158.077C204.759 158.203 203.771 157.457 203.64 156.411C203.509 155.365 204.284 154.414 205.372 154.288Z" fill="#DE8E68"/>
<path d="M203.157 326.536H210.786V331.316H203.157V326.536Z" fill="#DE8E68"/>
<path d="M211.239 326.642L216.023 234.906C213.776 236.458 202.202 239.631 187.627 235.736C188.639 243.789 202.924 327.139 202.924 327.139H211.193L211.239 326.642Z" fill="#74D4DE"/>
<path d="M202.783 169.497C177.367 169.497 186.287 234.906 187.687 236.787C189.087 238.668 215.015 239.952 216.608 235.175C217.665 232.014 223.091 169.497 202.783 169.497Z" fill="#FDD285"/>
<path d="M209.508 199.812C209.46 201.629 211.077 213.954 213.402 219.879C212.522 224.239 207.686 248.649 207.686 248.649L211.085 252.882C211.085 252.882 223.523 227.467 224.152 223.489C224.782 219.512 223.273 199.809 223.02 198.843C222.767 197.876 209.508 199.812 209.508 199.812Z" fill="#DE8E68"/>
<path d="M215.567 176.21C223.154 176.05 225.287 195.448 224.009 197.17C222.731 198.893 209.216 200.207 207.681 198.566C206.146 196.925 207.538 176.379 215.567 176.21Z" fill="#FDD792"/>
<path d="M210.78 330.775H202.673L189.646 335.727V337.608H210.785L210.78 330.775Z" fill="black"/>
<path d="M227.253 275.585C226.178 275.907 226.483 278.568 227.154 280.644C229.188 286.908 231.838 292.973 235.072 298.764C235.304 298.695 235.536 298.611 235.773 298.54C239.011 297.572 241.904 297.616 242.234 298.64C242.565 299.664 240.256 301.243 237.075 302.215C237.189 302.4 237.302 302.592 237.419 302.779C240.554 301.888 243.309 301.955 243.632 302.955C243.919 303.846 242.167 305.186 239.57 306.155C251.841 324.7 267.962 337.416 277.759 342.66L287.356 339.791L284.974 332.412C280.818 319.549 238.87 272.112 227.253 275.585Z" fill="#55C9D7"/>
</svg>
